<svg width="24" height="24" viewBox="0 0 24 24" fill="none" xmlns="http://www.w3.org/2000/svg">
<path d="M18.7504 9.71029V9.00528C18.7504 5.13619 15.7264 2.00012 12.0003 2.00012C8.27418 2.00012 5.25011 5.13619 5.25011 9.00528V9.71029C5.25132 10.5519 5.01115 11.3761 4.5581 12.0853L3.45007 13.8104C2.43905 15.3854 3.21107 17.5265 4.97011 18.0245C9.56632 19.3275 14.4342 19.3275 19.0304 18.0245C20.7895 17.5265 21.5615 15.3854 20.5505 13.8114L19.4424 12.0863C18.989 11.3772 18.7485 10.553 18.7494 9.7113L18.7504 9.71029Z" stroke="#1A97D4" stroke-width="1.5"/>
<path d="M7.5 18.9996C8.15501 20.7477 9.92205 21.9997 12.0001 21.9997C14.0781 21.9997 15.8452 20.7477 16.5002 18.9996" stroke="#1A97D4" stroke-width="1.5" stroke-linecap="round"/>
</svg>
