<svg width="24" height="24" viewBox="0 0 24 24" fill="none" xmlns="http://www.w3.org/2000/svg">
<path d="M5.16567 9.9C4.95239 9.9 4.80005 10.0828 4.80005 10.2656V18.1875C4.80005 19.0102 5.43989 19.65 6.26255 19.65H16.9876C17.7797 19.65 18.4501 19.0102 18.4501 18.1875V10.2656C18.4501 10.0828 18.2672 9.9 18.0844 9.9H5.16567ZM18.4501 8.55937V7.4625C18.4501 6.67031 17.7797 6 16.9876 6H15.5251V4.41562C15.5251 4.23281 15.3422 4.05 15.1594 4.05H13.9407C13.7274 4.05 13.5751 4.23281 13.5751 4.41562V6H9.67505V4.41562C9.67505 4.23281 9.49224 4.05 9.30942 4.05H8.09067C7.87739 4.05 7.72505 4.23281 7.72505 4.41562V6H6.26255C5.43989 6 4.80005 6.67031 4.80005 7.4625V8.55937C4.80005 8.77266 4.95239 8.925 5.16567 8.925H18.0844C18.2672 8.925 18.4501 8.77266 18.4501 8.55937Z" fill="#1A97D4"/>
</svg>
