<svg width="150" height="213" viewBox="0 0 150 213" fill="none" xmlns="http://www.w3.org/2000/svg">
<rect y="156.629" width="150" height="55.5682" rx="13.5" fill="white"/>
<rect opacity="0.3" x="52.2058" y="168.132" width="84.016" height="5.82512" rx="2.91256" fill="#A1ADB2"/>
<rect opacity="0.3" x="52.2058" y="178.75" width="61.8772" height="5.82512" rx="2.91256" fill="#A1ADB2"/>
<rect opacity="0.15" x="52.2058" y="194.677" width="24.026" height="5.82512" rx="2.91256" fill="#A1ADB2"/>
<ellipse cx="26.909" cy="177.299" rx="13.6364" ry="13.592" fill="#A1ADB2"/>
<path d="M24.7221 182.343C24.9816 182.602 25.3207 182.732 25.6605 182.732C26.0003 182.732 26.3394 182.602 26.5989 182.343L33.2354 175.706C33.7537 175.188 33.7537 174.348 33.2354 173.829C32.7171 173.311 31.8769 173.311 31.3586 173.829L25.6605 179.527L22.617 176.484C22.0987 175.966 21.2585 175.966 20.7402 176.484C20.2219 177.002 20.2219 177.843 20.7402 178.361L24.7221 182.343Z" fill="white"/>
<rect y="92.0368" width="150" height="55.5682" rx="13.5" fill="white"/>
<rect opacity="0.3" x="52.2058" y="103.54" width="84.016" height="5.82513" rx="2.91256" fill="#A1ADB2"/>
<rect opacity="0.3" x="52.2058" y="114.158" width="61.8772" height="5.82513" rx="2.91256" fill="#A1ADB2"/>
<rect opacity="0.15" x="52.2058" y="130.085" width="24.026" height="5.82512" rx="2.91256" fill="#A1ADB2"/>
<ellipse cx="26.909" cy="112.707" rx="13.6364" ry="13.592" fill="#A1ADB2"/>
<path d="M24.7221 117.751C24.9816 118.01 25.3207 118.14 25.6605 118.14C26.0003 118.14 26.3394 118.01 26.5989 117.751L33.2354 111.114C33.7537 110.596 33.7537 109.756 33.2354 109.238C32.7171 108.719 31.8769 108.719 31.3586 109.238L25.6605 114.935L22.617 111.892C22.0987 111.374 21.2585 111.374 20.7402 111.892C20.2219 112.41 20.2219 113.251 20.7402 113.769L24.7221 117.751Z" fill="white"/>
</svg>
