<svg width="14" height="14" viewBox="0 0 14 14" fill="none" xmlns="http://www.w3.org/2000/svg">
<path d="M7.00053 12.2359C9.88053 12.2359 12.2369 9.87955 12.2369 6.99956C12.2369 4.11956 9.88053 1.76319 7.00053 1.76319C4.12053 1.76319 1.76417 4.11956 1.76417 6.99956C1.76417 9.87955 4.12053 12.2359 7.00053 12.2359ZM7.00053 0.454102C10.6005 0.454102 13.546 3.39956 13.546 6.99956C13.546 10.5996 10.6005 13.545 7.00053 13.545C3.40053 13.545 0.455078 10.5996 0.455078 6.99956C0.455078 3.39956 3.40053 0.454102 7.00053 0.454102ZM10.2733 8.24319L9.81508 9.0941L6.34599 7.19592V3.72683H7.3278V6.60683L10.2733 8.24319Z" fill="#1A97D4"/>
</svg>
