<svg width="430" height="188" viewBox="0 0 430 188" fill="none" xmlns="http://www.w3.org/2000/svg">
<rect width="430" height="188" fill="#1A97D4"/>
<g opacity="0.6">
<mask id="mask0_1_2347" style="mask-type:alpha" maskUnits="userSpaceOnUse" x="0" y="0" width="430" height="188">
<rect width="430" height="188" transform="matrix(1 0 0 -1 0 188)" fill="#F2FBFF" fill-opacity="0.2"/>
</mask>
<g mask="url(#mask0_1_2347)">
<g opacity="0.2" clip-path="url(#clip0_1_2347)">
<path d="M379.439 28.089C382.436 28.089 384.879 25.6535 384.879 22.6494C384.879 19.6453 382.436 17.2098 379.439 17.2098C376.443 17.2098 374 19.653 374 22.6494C374 25.6458 376.443 28.089 379.439 28.089ZM379.439 18.7771C381.575 18.7771 383.304 20.5135 383.304 22.6494C383.304 24.7853 381.567 26.5217 379.439 26.5217C377.311 26.5217 375.575 24.7853 375.575 22.6494C375.575 20.5135 377.303 18.7848 379.439 18.7848V18.7771Z" fill="white"/>
</g>
<g opacity="0.2" clip-path="url(#clip1_1_2347)">
<path d="M426.182 92.7925L420.48 100.358C419.935 101.083 418.825 100.926 418.49 100.085L414.917 91.2561C414.572 90.4126 415.256 89.5042 416.143 89.6318L425.412 90.8836C426.299 91.0111 426.727 92.0672 426.182 92.7925Z" fill="white"/>
</g>
<g opacity="0.2" clip-path="url(#clip2_1_2347)">
<path d="M277.287 121.152C279.25 118.888 279.009 115.446 276.739 113.479C274.469 111.511 271.029 111.762 269.066 114.026C267.104 116.291 267.35 119.737 269.614 121.7C271.878 123.662 275.324 123.416 277.287 121.152ZM270.25 115.053C271.649 113.439 274.094 113.27 275.708 114.669C277.322 116.068 277.497 118.517 276.103 120.125C274.709 121.734 272.259 121.908 270.645 120.509C269.031 119.11 268.857 116.672 270.256 115.058L270.25 115.053Z" fill="white"/>
</g>
<g opacity="0.2" clip-path="url(#clip3_1_2347)">
<path d="M417.439 163C420.436 163 422.879 160.565 422.879 157.561C422.879 154.556 420.436 152.121 417.439 152.121C414.443 152.121 412 154.564 412 157.561C412 160.557 414.443 163 417.439 163ZM417.439 153.688C419.575 153.688 421.304 155.425 421.304 157.561C421.304 159.696 419.567 161.433 417.439 161.433C415.311 161.433 413.575 159.696 413.575 157.561C413.575 155.425 415.303 153.696 417.439 153.696V153.688Z" fill="white"/>
</g>
<g opacity="0.2" clip-path="url(#clip4_1_2347)">
<path d="M198.537 23.9224L194.987 32.7062C194.648 33.5478 193.536 33.6832 192.994 32.9577L187.257 25.3541C186.706 24.6286 187.132 23.5742 188.022 23.4677L197.299 22.2779C198.189 22.1715 198.876 23.0808 198.537 23.9224Z" fill="white"/>
</g>
<g opacity="0.2" clip-path="url(#clip5_1_2347)">
<path d="M15.2872 129.337L19.5993 137.773C20.0135 138.58 19.3872 139.51 18.4842 139.444L8.98126 138.799C8.07186 138.74 7.55386 137.728 8.05637 136.986L13.2335 129.196C13.736 128.454 14.873 128.53 15.2872 129.337Z" fill="white"/>
</g>
<g opacity="0.2">
<g clip-path="url(#clip6_1_2347)">
<path d="M361.759 61.194C360.618 60.5499 359.936 59.6271 359.766 58.3039C359.681 57.6598 359.544 56.9982 359.408 56.354C359.135 54.9786 358.863 53.6032 358.556 52.2452C358.351 51.3573 357.84 50.6434 357.227 49.9993C356.375 49.0939 355.421 48.3453 354.347 47.7359C350.257 45.403 346.168 43.07 342.078 40.737C341.448 40.3888 340.817 40.0406 340.153 39.6924C339.812 48.7109 339.471 57.7468 339.113 66.8001C338.057 66.2082 337.273 65.3899 336.642 64.3975C335.893 63.231 335.433 61.9427 335.211 60.5499C334.904 58.7566 334.563 56.9808 334.24 55.1875C334.189 54.8915 334.12 54.613 334.086 54.317C334.069 54.1081 333.967 53.9862 333.78 53.8818C333.132 53.5335 332.502 53.1679 331.871 52.8023C331.394 52.5238 331.292 52.0537 331.564 51.514C331.769 51.0961 332.263 50.9568 332.706 51.1832C332.979 51.3224 333.234 51.4965 333.575 51.6881C333.473 51.1309 333.405 50.6434 333.32 50.156C333.081 48.8502 332.859 47.5444 332.621 46.2387C332.587 46.0994 332.485 45.9427 332.365 45.873C331.82 45.5074 331.258 45.1418 330.712 44.7936C330.303 44.5325 330.184 44.0798 330.406 43.6097C330.627 43.1571 331.036 42.9829 331.496 43.1745C331.718 43.2615 331.922 43.4008 332.195 43.5401C332.059 42.7566 331.922 42.0254 331.786 41.3116C331.36 39.0308 330.934 36.7501 330.525 34.4519C330.491 34.243 330.372 34.1734 330.218 34.0863C327.662 32.6413 325.089 31.1962 322.55 29.7338C321.255 29.0025 320.062 28.132 319.108 26.9655C318.546 26.2691 318.103 25.5031 318.035 24.5629C317.983 24.0406 318.069 23.9187 318.529 23.675C319.551 23.1527 320.625 23.2049 321.715 23.4313C323.3 23.7446 324.731 24.4411 326.129 25.2419C328.429 26.5477 330.729 27.8361 333.03 29.1418C333.132 29.194 333.285 29.2115 333.388 29.1766C335.126 28.4976 336.881 27.8012 338.619 27.1048C339.539 26.7392 340.476 26.3736 341.397 25.9906C341.533 25.9383 341.669 25.8687 341.84 25.7294C341.652 25.6424 341.465 25.5553 341.277 25.4683C340.868 25.2419 340.715 24.8067 340.902 24.354C341.09 23.8839 341.465 23.675 341.925 23.7969C342.061 23.8317 342.197 23.9013 342.334 23.9884C342.845 24.267 343.356 24.5803 343.884 24.8589C343.987 24.9111 344.14 24.946 344.242 24.9111C345.895 24.2844 347.531 23.6402 349.167 22.996C349.201 22.996 349.235 22.9612 349.32 22.909C349.03 22.7523 348.758 22.613 348.502 22.4563C348.025 22.1777 347.906 21.7076 348.196 21.1853C348.417 20.7501 348.894 20.6108 349.354 20.8545C350.002 21.2028 350.632 21.5684 351.263 21.934C351.45 22.0384 351.586 22.0384 351.791 21.9688C353.904 21.1157 356.017 20.2278 358.147 19.4269C360.26 18.6435 362.407 18.5564 364.503 19.5488C364.571 19.5836 364.622 19.6184 364.69 19.6532C364.707 19.6532 364.741 19.6881 364.793 19.7403C357.465 24.8241 350.172 29.9079 342.828 35.0265C342.964 35.0961 343.049 35.1658 343.152 35.218C347.446 37.638 351.74 40.058 356.017 42.4955C357.176 43.1571 358.334 43.7838 359.629 44.1494C360.567 44.4106 361.538 44.6195 362.509 44.3932C363.157 44.2365 363.77 43.9753 364.401 43.749C365.662 43.2789 366.923 42.8088 368.184 42.3388C368.678 42.1647 369.172 41.9557 369.683 41.8513C370.45 41.6946 371.421 41.9209 372.052 42.3388C371.404 43.07 370.757 43.8012 370.126 44.5325C368.422 46.465 366.718 48.3975 365.031 50.3301C364.895 50.4868 364.793 50.6783 364.741 50.8698C363.787 54.23 362.85 57.5901 361.913 60.9329C361.896 61.0025 361.862 61.0896 361.828 61.194H361.759Z" fill="white"/>
</g>
<g clip-path="url(#clip7_1_2347)">
<path d="M729.429 -8.65981C729.429 -8.65981 692.829 -94.2298 622.749 -47.5898C552.659 -0.959812 488.899 134.7 375.279 58.5702" stroke="white" stroke-width="2" stroke-miterlimit="10" stroke-dasharray="13 2"/>
</g>
</g>
<g opacity="0.2">
<g clip-path="url(#clip8_1_2347)">
<path d="M18.6729 19.1706C19.3005 18.7998 19.9343 18.7279 20.6187 19.0136C20.9525 19.1517 21.3089 19.2699 21.6569 19.3833C22.3949 19.6343 23.1329 19.8853 23.872 20.115C24.3563 20.2633 24.8421 20.2155 25.3228 20.0991C25.9956 19.9403 26.6214 19.6888 27.2133 19.3411C29.4737 18.0198 31.7341 16.6985 33.9946 15.3771C34.3375 15.1703 34.6805 14.9634 35.0329 14.7401C30.7859 12.0692 26.5305 9.39345 22.2715 6.70468C22.8502 6.36035 23.4622 6.21026 24.1153 6.18242C24.8853 6.14552 25.6335 6.28203 26.3657 6.56247C27.3143 6.91318 28.264 7.24264 29.2174 7.58514C29.3741 7.64278 29.5272 7.68738 29.6791 7.75323C29.7844 7.8031 29.8715 7.78773 29.974 7.72648C30.3217 7.51138 30.673 7.30933 31.0244 7.10728C31.2911 6.9549 31.5459 7.03632 31.7299 7.31765C31.8742 7.53229 31.8038 7.80902 31.5717 7.9595C31.4288 8.0521 31.2739 8.12682 31.0869 8.23774C31.3836 8.34335 31.6372 8.44602 31.8956 8.54048C32.5906 8.78852 33.2808 9.04477 33.9758 9.29281C34.0523 9.31511 34.1562 9.30942 34.2229 9.27132C34.5506 9.11031 34.883 8.94109 35.2022 8.77524C35.4417 8.65085 35.6928 8.71922 35.8575 8.95657C36.0138 9.18909 35.9839 9.43446 35.7638 9.60283C35.6603 9.68533 35.5363 9.7451 35.3935 9.83771C35.8086 9.98982 36.1985 10.1274 36.5801 10.2602C37.7965 10.6889 39.013 11.1177 40.2332 11.5595C40.3432 11.6011 40.4099 11.563 40.4945 11.5134C41.9009 10.6839 43.3122 9.84624 44.7223 9.02983C45.4345 8.60932 46.1852 8.27676 47.0122 8.14137C47.5038 8.0641 47.9958 8.06363 48.4674 8.29212C48.7331 8.41268 48.7681 8.48759 48.7575 8.77694C48.7246 9.41456 48.4009 9.91711 47.9887 10.3795C47.3971 11.0557 46.6638 11.5515 45.8897 12.0019C44.6214 12.747 43.3614 13.4969 42.0931 14.2419C42.0395 14.2767 41.9884 14.3457 41.9768 14.4046C41.8203 15.4305 41.6675 16.4694 41.5195 17.5002C41.4396 18.045 41.355 18.598 41.2835 19.1477C41.2708 19.2279 41.2664 19.3129 41.2861 19.4337C41.3801 19.3676 41.4741 19.3015 41.5682 19.2354C41.7908 19.1014 42.043 19.1485 42.2088 19.3646C42.383 19.5855 42.3794 19.8241 42.1927 20.0119C42.1381 20.0679 42.0666 20.1142 41.9868 20.1556C41.7106 20.3244 41.4175 20.4835 41.1365 20.6605C41.0829 20.6953 41.0235 20.7594 41.0119 20.8184C40.854 21.7887 40.7092 22.7557 40.5644 23.7226C40.5549 23.7391 40.5622 23.7651 40.5637 23.8207C40.7197 23.7247 40.8625 23.6321 41.0091 23.5526C41.2758 23.4002 41.5353 23.4734 41.7062 23.7581C41.8542 23.9858 41.7885 24.2543 41.5433 24.4081C41.1956 24.6232 40.8442 24.8253 40.4929 25.0273C40.3905 25.0886 40.3525 25.1543 40.3292 25.2721C40.1523 26.5269 39.9922 27.7915 39.7855 29.04C39.5751 30.2755 39.0199 31.3338 37.9593 32.0675C37.9236 32.0906 37.8926 32.1056 37.8569 32.1287C37.8522 32.137 37.8259 32.1437 37.7866 32.1538C37.3766 27.2115 36.9573 22.2857 36.5353 17.3255C36.4639 17.3718 36.4067 17.3935 36.3531 17.4283C33.9939 18.8239 31.6347 20.2195 29.2719 21.6021C28.6311 21.9763 28.0072 22.3602 27.471 22.8823C27.0847 23.2611 26.714 23.6709 26.5528 24.2016C26.4482 24.557 26.4034 24.9251 26.337 25.2917C26.2126 26.0297 26.0883 26.7677 25.964 27.5057C25.9104 27.7921 25.8735 28.0882 25.7817 28.3635C25.6439 28.7764 25.2648 29.1813 24.8883 29.3688C24.7163 28.8537 24.5444 28.3385 24.3677 27.8316C23.9111 26.4737 23.4546 25.1158 22.9933 23.7661C22.9558 23.6569 22.892 23.5544 22.8141 23.4766C21.4617 22.083 20.1046 20.6976 18.756 19.3171C18.7272 19.2895 18.6947 19.2489 18.6539 19.2034L18.6729 19.1706Z" fill="white"/>
</g>
<g clip-path="url(#clip9_1_2347)">
<path d="M-49.9398 215.677C-49.9398 215.677 1.43418 221.833 -1.53171 175.115C-4.49 128.395 -52.0704 59.9772 16.1768 26.4123" stroke="white" stroke-width="2" stroke-miterlimit="10" stroke-dasharray="13 2"/>
</g>
</g>
</g>
</g>
<path d="M37.98 60L30.96 39H34.05L40.5 58.38H38.94L45.63 39H48.39L54.93 58.38H53.43L59.97 39H62.82L55.8 60H52.65L46.53 42.03H47.34L41.19 60H37.98ZM74.9993 43.95C76.2993 43.95 77.4393 44.2 78.4193 44.7C79.4193 45.2 80.1993 45.96 80.7593 46.98C81.3193 48 81.5993 49.29 81.5993 50.85V60H78.7193V51.18C78.7193 49.64 78.3393 48.48 77.5793 47.7C76.8393 46.92 75.7893 46.53 74.4293 46.53C73.4093 46.53 72.5193 46.73 71.7593 47.13C70.9993 47.53 70.4093 48.12 69.9893 48.9C69.5893 49.68 69.3893 50.65 69.3893 51.81V60H66.5093V37.74H69.3893V48.39L68.8193 47.25C69.3393 46.21 70.1393 45.4 71.2193 44.82C72.2993 44.24 73.5593 43.95 74.9993 43.95ZM94.0092 60.18C92.3092 60.18 90.8092 59.83 89.5092 59.13C88.2292 58.43 87.2292 57.47 86.5092 56.25C85.8092 55.03 85.4592 53.63 85.4592 52.05C85.4592 50.47 85.7992 49.07 86.4792 47.85C87.1792 46.63 88.1292 45.68 89.3292 45C90.5492 44.3 91.9192 43.95 93.4392 43.95C94.9792 43.95 96.3392 44.29 97.5192 44.97C98.6992 45.65 99.6192 46.61 100.279 47.85C100.959 49.07 101.299 50.5 101.299 52.14C101.299 52.26 101.289 52.4 101.269 52.56C101.269 52.72 101.259 52.87 101.239 53.01H87.7092V50.94H99.7392L98.5692 51.66C98.5892 50.64 98.3792 49.73 97.9392 48.93C97.4992 48.13 96.8892 47.51 96.1092 47.07C95.3492 46.61 94.4592 46.38 93.4392 46.38C92.4392 46.38 91.5492 46.61 90.7692 47.07C89.9892 47.51 89.3792 48.14 88.9392 48.96C88.4992 49.76 88.2792 50.68 88.2792 51.72V52.2C88.2792 53.26 88.5192 54.21 88.9992 55.05C89.4992 55.87 90.1892 56.51 91.0692 56.97C91.9492 57.43 92.9592 57.66 94.0992 57.66C95.0392 57.66 95.8892 57.5 96.6492 57.18C97.4292 56.86 98.1092 56.38 98.6892 55.74L100.279 57.6C99.5592 58.44 98.6592 59.08 97.5792 59.52C96.5192 59.96 95.3292 60.18 94.0092 60.18ZM105.298 60V44.1H108.058V48.42L107.788 47.34C108.228 46.24 108.968 45.4 110.008 44.82C111.048 44.24 112.328 43.95 113.848 43.95V46.74C113.728 46.72 113.608 46.71 113.488 46.71C113.388 46.71 113.288 46.71 113.188 46.71C111.648 46.71 110.428 47.17 109.528 48.09C108.628 49.01 108.178 50.34 108.178 52.08V60H105.298ZM124.331 60.18C122.631 60.18 121.131 59.83 119.831 59.13C118.551 58.43 117.551 57.47 116.831 56.25C116.131 55.03 115.781 53.63 115.781 52.05C115.781 50.47 116.121 49.07 116.801 47.85C117.501 46.63 118.451 45.68 119.651 45C120.871 44.3 122.241 43.95 123.761 43.95C125.301 43.95 126.661 44.29 127.841 44.97C129.021 45.65 129.941 46.61 130.601 47.85C131.281 49.07 131.621 50.5 131.621 52.14C131.621 52.26 131.611 52.4 131.591 52.56C131.591 52.72 131.581 52.87 131.561 53.01H118.031V50.94H130.061L128.891 51.66C128.911 50.64 128.701 49.73 128.261 48.93C127.821 48.13 127.211 47.51 126.431 47.07C125.671 46.61 124.781 46.38 123.761 46.38C122.761 46.38 121.871 46.61 121.091 47.07C120.311 47.51 119.701 48.14 119.261 48.96C118.821 49.76 118.601 50.68 118.601 51.72V52.2C118.601 53.26 118.841 54.21 119.321 55.05C119.821 55.87 120.511 56.51 121.391 56.97C122.271 57.43 123.281 57.66 124.421 57.66C125.361 57.66 126.211 57.5 126.971 57.18C127.751 56.86 128.431 56.38 129.011 55.74L130.601 57.6C129.881 58.44 128.981 59.08 127.901 59.52C126.841 59.96 125.651 60.18 124.331 60.18ZM134.451 45.93L135.951 39.84L136.341 41.58C135.761 41.58 135.271 41.4 134.871 41.04C134.491 40.68 134.301 40.2 134.301 39.6C134.301 38.98 134.491 38.49 134.871 38.13C135.271 37.75 135.751 37.56 136.311 37.56C136.891 37.56 137.361 37.76 137.721 38.16C138.081 38.54 138.261 39.02 138.261 39.6C138.261 39.78 138.251 39.97 138.231 40.17C138.211 40.35 138.161 40.56 138.081 40.8C138.021 41.04 137.921 41.35 137.781 41.73L136.341 45.93H134.451ZM146.45 60.18C145.13 60.18 143.87 60 142.67 59.64C141.49 59.28 140.56 58.84 139.88 58.32L141.08 56.04C141.76 56.5 142.6 56.89 143.6 57.21C144.6 57.53 145.62 57.69 146.66 57.69C148 57.69 148.96 57.5 149.54 57.12C150.14 56.74 150.44 56.21 150.44 55.53C150.44 55.03 150.26 54.64 149.9 54.36C149.54 54.08 149.06 53.87 148.46 53.73C147.88 53.59 147.23 53.47 146.51 53.37C145.79 53.25 145.07 53.11 144.35 52.95C143.63 52.77 142.97 52.53 142.37 52.23C141.77 51.91 141.29 51.48 140.93 50.94C140.57 50.38 140.39 49.64 140.39 48.72C140.39 47.76 140.66 46.92 141.2 46.2C141.74 45.48 142.5 44.93 143.48 44.55C144.48 44.15 145.66 43.95 147.02 43.95C148.06 43.95 149.11 44.08 150.17 44.34C151.25 44.58 152.13 44.93 152.81 45.39L151.58 47.67C150.86 47.19 150.11 46.86 149.33 46.68C148.55 46.5 147.77 46.41 146.99 46.41C145.73 46.41 144.79 46.62 144.17 47.04C143.55 47.44 143.24 47.96 143.24 48.6C143.24 49.14 143.42 49.56 143.78 49.86C144.16 50.14 144.64 50.36 145.22 50.52C145.82 50.68 146.48 50.82 147.2 50.94C147.92 51.04 148.64 51.18 149.36 51.36C150.08 51.52 150.73 51.75 151.31 52.05C151.91 52.35 152.39 52.77 152.75 53.31C153.13 53.85 153.32 54.57 153.32 55.47C153.32 56.43 153.04 57.26 152.48 57.96C151.92 58.66 151.13 59.21 150.11 59.61C149.09 59.99 147.87 60.18 146.45 60.18ZM170.466 60V51.96L171.156 53.82L162.126 39H165.336L172.926 51.51H171.186L178.806 39H181.776L172.776 53.82L173.436 51.96V60H170.466ZM189.423 60.18C187.823 60.18 186.403 59.83 185.163 59.13C183.923 58.43 182.943 57.47 182.223 56.25C181.503 55.01 181.143 53.61 181.143 52.05C181.143 50.47 181.503 49.07 182.223 47.85C182.943 46.63 183.923 45.68 185.163 45C186.403 44.3 187.823 43.95 189.423 43.95C191.003 43.95 192.413 44.3 193.653 45C194.913 45.68 195.893 46.63 196.593 47.85C197.313 49.05 197.673 50.45 197.673 52.05C197.673 53.63 197.313 55.03 196.593 56.25C195.893 57.47 194.913 58.43 193.653 59.13C192.413 59.83 191.003 60.18 189.423 60.18ZM189.423 57.66C190.443 57.66 191.353 57.43 192.153 56.97C192.973 56.51 193.613 55.86 194.073 55.02C194.533 54.16 194.763 53.17 194.763 52.05C194.763 50.91 194.533 49.93 194.073 49.11C193.613 48.27 192.973 47.62 192.153 47.16C191.353 46.7 190.443 46.47 189.423 46.47C188.403 46.47 187.493 46.7 186.693 47.16C185.893 47.62 185.253 48.27 184.773 49.11C184.293 49.93 184.053 50.91 184.053 52.05C184.053 53.17 184.293 54.16 184.773 55.02C185.253 55.86 185.893 56.51 186.693 56.97C187.493 57.43 188.403 57.66 189.423 57.66ZM208.346 60.18C206.986 60.18 205.786 59.93 204.746 59.43C203.726 58.93 202.926 58.17 202.346 57.15C201.786 56.11 201.506 54.81 201.506 53.25V44.1H204.386V52.92C204.386 54.48 204.756 55.65 205.496 56.43C206.256 57.21 207.316 57.6 208.676 57.6C209.676 57.6 210.546 57.4 211.286 57C212.026 56.58 212.596 55.98 212.996 55.2C213.396 54.4 213.596 53.44 213.596 52.32V44.1H216.476V60H213.746V55.71L214.196 56.85C213.676 57.91 212.896 58.73 211.856 59.31C210.816 59.89 209.646 60.18 208.346 60.18ZM221.959 60V44.1H224.719V48.42L224.449 47.34C224.889 46.24 225.629 45.4 226.669 44.82C227.709 44.24 228.989 43.95 230.509 43.95V46.74C230.389 46.72 230.269 46.71 230.149 46.71C230.049 46.71 229.949 46.71 229.849 46.71C228.309 46.71 227.089 47.17 226.189 48.09C225.289 49.01 224.839 50.34 224.839 52.08V60H221.959ZM32.49 97V76H36.51L48.9 91.12H46.95V76H51.75V97H47.76L35.34 81.88H37.29V97H32.49ZM64.3985 97.24C62.5585 97.24 60.9385 96.88 59.5385 96.16C58.1585 95.44 57.0885 94.46 56.3285 93.22C55.5685 91.96 55.1885 90.53 55.1885 88.93C55.1885 87.31 55.5585 85.88 56.2985 84.64C57.0585 83.38 58.0885 82.4 59.3885 81.7C60.6885 80.98 62.1585 80.62 63.7985 80.62C65.3785 80.62 66.7985 80.96 68.0585 81.64C69.3385 82.3 70.3485 83.26 71.0885 84.52C71.8285 85.76 72.1985 87.25 72.1985 88.99C72.1985 89.17 72.1885 89.38 72.1685 89.62C72.1485 89.84 72.1285 90.05 72.1085 90.25H58.9985V87.52H69.6485L67.8485 88.33C67.8485 87.49 67.6785 86.76 67.3385 86.14C66.9985 85.52 66.5285 85.04 65.9285 84.7C65.3285 84.34 64.6285 84.16 63.8285 84.16C63.0285 84.16 62.3185 84.34 61.6985 84.7C61.0985 85.04 60.6285 85.53 60.2885 86.17C59.9485 86.79 59.7785 87.53 59.7785 88.39V89.11C59.7785 89.99 59.9685 90.77 60.3485 91.45C60.7485 92.11 61.2985 92.62 61.9985 92.98C62.7185 93.32 63.5585 93.49 64.5185 93.49C65.3785 93.49 66.1285 93.36 66.7685 93.1C67.4285 92.84 68.0285 92.45 68.5685 91.93L71.0585 94.63C70.3185 95.47 69.3885 96.12 68.2685 96.58C67.1485 97.02 65.8585 97.24 64.3985 97.24ZM72.8348 97L80.0648 87.52L79.9748 90.1L73.0448 80.86H78.2948L82.6748 86.89L80.6948 86.95L85.2248 80.86H90.2048L83.2448 90.01V87.49L90.4448 97H85.1348L80.5448 90.58L82.4948 90.85L77.9348 97H72.8348ZM99.3166 97.24C97.4166 97.24 95.9366 96.76 94.8766 95.8C93.8166 94.82 93.2866 93.37 93.2866 91.45V77.29H97.9666V91.39C97.9666 92.07 98.1466 92.6 98.5066 92.98C98.8666 93.34 99.3566 93.52 99.9766 93.52C100.717 93.52 101.347 93.32 101.867 92.92L103.127 96.22C102.647 96.56 102.067 96.82 101.387 97C100.727 97.16 100.037 97.24 99.3166 97.24ZM90.7966 84.82V81.22H101.987V84.82H90.7966ZM114.58 97V76H124.12C126.4 76 128.41 76.44 130.15 77.32C131.89 78.18 133.25 79.39 134.23 80.95C135.21 82.51 135.7 84.36 135.7 86.5C135.7 88.62 135.21 90.47 134.23 92.05C133.25 93.61 131.89 94.83 130.15 95.71C128.41 96.57 126.4 97 124.12 97H114.58ZM119.44 93.01H123.88C125.28 93.01 126.49 92.75 127.51 92.23C128.55 91.69 129.35 90.93 129.91 89.95C130.49 88.97 130.78 87.82 130.78 86.5C130.78 85.16 130.49 84.01 129.91 83.05C129.35 82.07 128.55 81.32 127.51 80.8C126.49 80.26 125.28 79.99 123.88 79.99H119.44V93.01ZM147.045 97.24C145.205 97.24 143.585 96.88 142.185 96.16C140.805 95.44 139.735 94.46 138.975 93.22C138.215 91.96 137.835 90.53 137.835 88.93C137.835 87.31 138.205 85.88 138.945 84.64C139.705 83.38 140.735 82.4 142.035 81.7C143.335 80.98 144.805 80.62 146.445 80.62C148.025 80.62 149.445 80.96 150.705 81.64C151.985 82.3 152.995 83.26 153.735 84.52C154.475 85.76 154.845 87.25 154.845 88.99C154.845 89.17 154.835 89.38 154.815 89.62C154.795 89.84 154.775 90.05 154.755 90.25H141.645V87.52H152.295L150.495 88.33C150.495 87.49 150.325 86.76 149.985 86.14C149.645 85.52 149.175 85.04 148.575 84.7C147.975 84.34 147.275 84.16 146.475 84.16C145.675 84.16 144.965 84.34 144.345 84.7C143.745 85.04 143.275 85.53 142.935 86.17C142.595 86.79 142.425 87.53 142.425 88.39V89.11C142.425 89.99 142.615 90.77 142.995 91.45C143.395 92.11 143.945 92.62 144.645 92.98C145.365 93.32 146.205 93.49 147.165 93.49C148.025 93.49 148.775 93.36 149.415 93.1C150.075 92.84 150.675 92.45 151.215 91.93L153.705 94.63C152.965 95.47 152.035 96.12 150.915 96.58C149.795 97.02 148.505 97.24 147.045 97.24ZM163.391 97.24C162.011 97.24 160.681 97.08 159.401 96.76C158.141 96.42 157.141 96 156.401 95.5L157.961 92.14C158.701 92.6 159.571 92.98 160.571 93.28C161.591 93.56 162.591 93.7 163.571 93.7C164.651 93.7 165.411 93.57 165.851 93.31C166.311 93.05 166.541 92.69 166.541 92.23C166.541 91.85 166.361 91.57 166.001 91.39C165.661 91.19 165.201 91.04 164.621 90.94C164.041 90.84 163.401 90.74 162.701 90.64C162.021 90.54 161.331 90.41 160.631 90.25C159.931 90.07 159.291 89.81 158.711 89.47C158.131 89.13 157.661 88.67 157.301 88.09C156.961 87.51 156.791 86.76 156.791 85.84C156.791 84.82 157.081 83.92 157.661 83.14C158.261 82.36 159.121 81.75 160.241 81.31C161.361 80.85 162.701 80.62 164.261 80.62C165.361 80.62 166.481 80.74 167.621 80.98C168.761 81.22 169.711 81.57 170.471 82.03L168.911 85.36C168.131 84.9 167.341 84.59 166.541 84.43C165.761 84.25 165.001 84.16 164.261 84.16C163.221 84.16 162.461 84.3 161.981 84.58C161.501 84.86 161.261 85.22 161.261 85.66C161.261 86.06 161.431 86.36 161.771 86.56C162.131 86.76 162.601 86.92 163.181 87.04C163.761 87.16 164.391 87.27 165.071 87.37C165.771 87.45 166.471 87.58 167.171 87.76C167.871 87.94 168.501 88.2 169.061 88.54C169.641 88.86 170.111 89.31 170.471 89.89C170.831 90.45 171.011 91.19 171.011 92.11C171.011 93.11 170.711 94 170.111 94.78C169.511 95.54 168.641 96.14 167.501 96.58C166.381 97.02 165.011 97.24 163.391 97.24ZM180.498 97.24C178.598 97.24 177.118 96.76 176.058 95.8C174.998 94.82 174.468 93.37 174.468 91.45V77.29H179.148V91.39C179.148 92.07 179.328 92.6 179.688 92.98C180.048 93.34 180.538 93.52 181.158 93.52C181.898 93.52 182.528 93.32 183.048 92.92L184.308 96.22C183.828 96.56 183.248 96.82 182.568 97C181.908 97.16 181.218 97.24 180.498 97.24ZM171.978 84.82V81.22H183.168V84.82H171.978ZM186.935 97V80.86H191.615V97H186.935ZM189.275 78.61C188.415 78.61 187.715 78.36 187.175 77.86C186.635 77.36 186.365 76.74 186.365 76C186.365 75.26 186.635 74.64 187.175 74.14C187.715 73.64 188.415 73.39 189.275 73.39C190.135 73.39 190.835 73.63 191.375 74.11C191.915 74.57 192.185 75.17 192.185 75.91C192.185 76.69 191.915 77.34 191.375 77.86C190.855 78.36 190.155 78.61 189.275 78.61ZM205.769 80.62C207.049 80.62 208.189 80.88 209.189 81.4C210.209 81.9 211.009 82.68 211.589 83.74C212.169 84.78 212.459 86.12 212.459 87.76V97H207.779V88.48C207.779 87.18 207.489 86.22 206.909 85.6C206.349 84.98 205.549 84.67 204.509 84.67C203.769 84.67 203.099 84.83 202.499 85.15C201.919 85.45 201.459 85.92 201.119 86.56C200.799 87.2 200.639 88.02 200.639 89.02V97H195.959V80.86H200.429V85.33L199.589 83.98C200.169 82.9 200.999 82.07 202.079 81.49C203.159 80.91 204.389 80.62 205.769 80.62ZM226.601 97V93.85L226.301 93.16V87.52C226.301 86.52 225.991 85.74 225.371 85.18C224.771 84.62 223.841 84.34 222.581 84.34C221.721 84.34 220.871 84.48 220.031 84.76C219.211 85.02 218.511 85.38 217.931 85.84L216.251 82.57C217.131 81.95 218.191 81.47 219.431 81.13C220.671 80.79 221.931 80.62 223.211 80.62C225.671 80.62 227.581 81.2 228.941 82.36C230.301 83.52 230.981 85.33 230.981 87.79V97H226.601ZM221.681 97.24C220.421 97.24 219.341 97.03 218.441 96.61C217.541 96.17 216.851 95.58 216.371 94.84C215.891 94.1 215.651 93.27 215.651 92.35C215.651 91.39 215.881 90.55 216.341 89.83C216.821 89.11 217.571 88.55 218.591 88.15C219.611 87.73 220.941 87.52 222.581 87.52H226.871V90.25H223.091C221.991 90.25 221.231 90.43 220.811 90.79C220.411 91.15 220.211 91.6 220.211 92.14C220.211 92.74 220.441 93.22 220.901 93.58C221.381 93.92 222.031 94.09 222.851 94.09C223.631 94.09 224.331 93.91 224.951 93.55C225.571 93.17 226.021 92.62 226.301 91.9L227.021 94.06C226.681 95.1 226.061 95.89 225.161 96.43C224.261 96.97 223.101 97.24 221.681 97.24ZM241.817 97.24C239.917 97.24 238.437 96.76 237.377 95.8C236.317 94.82 235.787 93.37 235.787 91.45V77.29H240.467V91.39C240.467 92.07 240.647 92.6 241.007 92.98C241.367 93.34 241.857 93.52 242.477 93.52C243.217 93.52 243.847 93.32 244.367 92.92L245.627 96.22C245.147 96.56 244.567 96.82 243.887 97C243.227 97.16 242.537 97.24 241.817 97.24ZM233.297 84.82V81.22H244.487V84.82H233.297ZM248.254 97V80.86H252.934V97H248.254ZM250.594 78.61C249.734 78.61 249.034 78.36 248.494 77.86C247.954 77.36 247.684 76.74 247.684 76C247.684 75.26 247.954 74.64 248.494 74.14C249.034 73.64 249.734 73.39 250.594 73.39C251.454 73.39 252.154 73.63 252.694 74.11C253.234 74.57 253.504 75.17 253.504 75.91C253.504 76.69 253.234 77.34 252.694 77.86C252.174 78.36 251.474 78.61 250.594 78.61ZM264.957 97.24C263.237 97.24 261.707 96.88 260.367 96.16C259.047 95.44 257.997 94.46 257.217 93.22C256.457 91.96 256.077 90.53 256.077 88.93C256.077 87.31 256.457 85.88 257.217 84.64C257.997 83.38 259.047 82.4 260.367 81.7C261.707 80.98 263.237 80.62 264.957 80.62C266.657 80.62 268.177 80.98 269.517 81.7C270.857 82.4 271.907 83.37 272.667 84.61C273.427 85.85 273.807 87.29 273.807 88.93C273.807 90.53 273.427 91.96 272.667 93.22C271.907 94.46 270.857 95.44 269.517 96.16C268.177 96.88 266.657 97.24 264.957 97.24ZM264.957 93.4C265.737 93.4 266.437 93.22 267.057 92.86C267.677 92.5 268.167 91.99 268.527 91.33C268.887 90.65 269.067 89.85 269.067 88.93C269.067 87.99 268.887 87.19 268.527 86.53C268.167 85.87 267.677 85.36 267.057 85C266.437 84.64 265.737 84.46 264.957 84.46C264.177 84.46 263.477 84.64 262.857 85C262.237 85.36 261.737 85.87 261.357 86.53C260.997 87.19 260.817 87.99 260.817 88.93C260.817 89.85 260.997 90.65 261.357 91.33C261.737 91.99 262.237 92.5 262.857 92.86C263.477 93.22 264.177 93.4 264.957 93.4ZM286.745 80.62C288.025 80.62 289.165 80.88 290.165 81.4C291.185 81.9 291.985 82.68 292.565 83.74C293.145 84.78 293.435 86.12 293.435 87.76V97H288.755V88.48C288.755 87.18 288.465 86.22 287.885 85.6C287.325 84.98 286.525 84.67 285.485 84.67C284.745 84.67 284.075 84.83 283.475 85.15C282.895 85.45 282.435 85.92 282.095 86.56C281.775 87.2 281.615 88.02 281.615 89.02V97H276.935V80.86H281.405V85.33L280.565 83.98C281.145 82.9 281.975 82.07 283.055 81.49C284.135 80.91 285.365 80.62 286.745 80.62ZM300.709 89.71C300.709 89.01 300.819 88.39 301.039 87.85C301.279 87.31 301.569 86.83 301.909 86.41C302.269 85.99 302.649 85.6 303.049 85.24C303.449 84.88 303.819 84.54 304.159 84.22C304.519 83.88 304.809 83.53 305.029 83.17C305.269 82.81 305.389 82.41 305.389 81.97C305.389 81.25 305.089 80.67 304.489 80.23C303.909 79.79 303.129 79.57 302.149 79.57C301.209 79.57 300.369 79.77 299.629 80.17C298.889 80.55 298.279 81.09 297.799 81.79L294.169 79.66C294.969 78.44 296.079 77.47 297.499 76.75C298.919 76.01 300.639 75.64 302.659 75.64C304.159 75.64 305.479 75.86 306.619 76.3C307.759 76.72 308.649 77.34 309.289 78.16C309.949 78.98 310.279 79.99 310.279 81.19C310.279 81.97 310.159 82.66 309.919 83.26C309.679 83.86 309.369 84.38 308.989 84.82C308.609 85.26 308.199 85.67 307.759 86.05C307.339 86.43 306.939 86.8 306.559 87.16C306.179 87.52 305.859 87.9 305.599 88.3C305.359 88.7 305.239 89.17 305.239 89.71H300.709ZM302.989 97.24C302.149 97.24 301.459 96.97 300.919 96.43C300.379 95.89 300.109 95.25 300.109 94.51C300.109 93.75 300.379 93.12 300.919 92.62C301.459 92.1 302.149 91.84 302.989 91.84C303.849 91.84 304.539 92.1 305.059 92.62C305.599 93.12 305.869 93.75 305.869 94.51C305.869 95.25 305.599 95.89 305.059 96.43C304.539 96.97 303.849 97.24 302.989 97.24Z" fill="white"/>
<defs>
<clipPath id="clip0_1_2347">
<rect width="10.8792" height="10.8792" fill="white" transform="matrix(-1 0 0 1 384.879 17.2098)"/>
</clipPath>
<clipPath id="clip1_1_2347">
<rect width="11.6085" height="11.1538" fill="white" transform="matrix(-0.965926 -0.258819 -0.258819 0.965926 426.691 91.2264)"/>
</clipPath>
<clipPath id="clip2_1_2347">
<rect width="10.8792" height="10.8792" fill="white" transform="matrix(-0.654974 0.755651 0.755651 0.654974 272.629 109.916)"/>
</clipPath>
<clipPath id="clip3_1_2347">
<rect width="10.8792" height="10.8792" fill="white" transform="matrix(-1 0 0 1 422.879 152.121)"/>
</clipPath>
<clipPath id="clip4_1_2347">
<rect width="11.6085" height="11.1538" fill="white" transform="matrix(-1 0 0 1 198.625 22.2781)"/>
</clipPath>
<clipPath id="clip5_1_2347">
<rect width="11.6085" height="11.1538" fill="white" transform="matrix(-0.654974 0.755651 0.755651 0.654974 14.1016 128.194)"/>
</clipPath>
<clipPath id="clip6_1_2347">
<rect width="54" height="48" fill="white" transform="matrix(1 0 0 -1 318 66.8001)"/>
</clipPath>
<clipPath id="clip7_1_2347">
<rect width="354.89" height="143.8" fill="white" transform="matrix(1 0 0 -1 375 81.8001)"/>
</clipPath>
<clipPath id="clip8_1_2347">
<rect width="30.033" height="26.6837" fill="white" transform="matrix(-0.5 0.866025 0.866025 0.5 28.1426 -3.46439)"/>
</clipPath>
<clipPath id="clip9_1_2347">
<rect width="197.378" height="79.9398" fill="white" transform="matrix(-0.5 0.866025 0.866025 0.5 5.07031 19.8208)"/>
</clipPath>
</defs>
</svg>
