<svg width="21" height="20" viewBox="0 0 21 20" fill="none" xmlns="http://www.w3.org/2000/svg">
<path d="M7.50067 8C8.29632 8 9.05938 7.68393 9.62199 7.12132C10.1846 6.55871 10.5007 5.79565 10.5007 5C10.5007 4.20435 10.1846 3.44129 9.62199 2.87868C9.05938 2.31607 8.29632 2 7.50067 2C6.70502 2 5.94196 2.31607 5.37935 2.87868C4.81674 3.44129 4.50067 4.20435 4.50067 5C4.50067 5.79565 4.81674 6.55871 5.37935 7.12132C5.94196 7.68393 6.70502 8 7.50067 8ZM15.0007 9C15.6637 9 16.2996 8.73661 16.7684 8.26777C17.2373 7.79893 17.5007 7.16304 17.5007 6.5C17.5007 5.83696 17.2373 5.20107 16.7684 4.73223C16.2996 4.26339 15.6637 4 15.0007 4C14.3376 4 13.7017 4.26339 13.2329 4.73223C12.7641 5.20107 12.5007 5.83696 12.5007 6.5C12.5007 7.16304 12.7641 7.79893 13.2329 8.26777C13.7017 8.73661 14.3376 9 15.0007 9ZM2.11567 16.428C1.9196 16.3058 1.76212 16.1306 1.66143 15.9227C1.56074 15.7148 1.52096 15.4826 1.54667 15.253C1.73102 13.8041 2.43742 12.4721 3.53348 11.5066C4.62954 10.5412 6.04004 10.0086 7.50067 10.0086C8.96129 10.0086 10.3718 10.5412 11.4679 11.5066C12.5639 12.4721 13.2703 13.8041 13.4547 15.253C13.5127 15.72 13.2827 16.173 12.8847 16.427C11.2779 17.4566 9.40902 18.0027 7.50067 18C5.59207 18.0032 3.72281 17.4575 2.11567 16.428ZM15.0007 16H14.8947C14.9647 15.703 14.9827 15.389 14.9427 15.067C14.7717 13.6923 14.2219 12.3922 13.3547 11.312C13.9128 11.0924 14.5092 10.9865 15.1088 11.0006C15.7084 11.0147 16.2991 11.1484 16.8463 11.394C17.3936 11.6395 17.8862 11.9919 18.2953 12.4305C18.7044 12.8691 19.0217 13.3851 19.2287 13.948C19.2922 14.1277 19.2911 14.324 19.2253 14.5029C19.1596 14.6818 19.0335 14.8322 18.8687 14.928C17.7014 15.6318 16.3637 16.0025 15.0007 16Z" fill="white"/>
</svg>
