<svg width="35" height="34" viewBox="0 0 35 34" fill="none" xmlns="http://www.w3.org/2000/svg">
<path d="M17.4345 13.6004C18.7871 13.6004 20.0843 13.0631 21.0408 12.1066C21.9972 11.1502 22.5345 9.853 22.5345 8.50039C22.5345 7.14779 21.9972 5.85058 21.0408 4.89415C20.0843 3.93771 18.7871 3.40039 17.4345 3.40039C16.0819 3.40039 14.7847 3.93771 13.8283 4.89415C12.8719 5.85058 12.3345 7.14779 12.3345 8.50039C12.3345 9.853 12.8719 11.1502 13.8283 12.1066C14.7847 13.0631 16.0819 13.6004 17.4345 13.6004ZM8.28003 27.928C7.94672 27.7203 7.67901 27.4224 7.50784 27.069C7.33666 26.7155 7.26902 26.3208 7.31273 25.9305C7.62614 23.4673 8.82701 21.2029 10.6903 19.5616C12.5536 17.9204 14.9515 17.0149 17.4345 17.0149C19.9176 17.0149 22.3154 17.9204 24.1787 19.5616C26.0421 21.2029 27.2429 23.4673 27.5563 25.9305C27.6549 26.7244 27.2639 27.4945 26.5873 27.9263C23.8558 29.6767 20.6787 30.6049 17.4345 30.6004C14.1899 30.6058 11.0122 29.6781 8.28003 27.928Z" fill="white"/>
</svg>
