<svg width="28" height="28" viewBox="0 0 28 28" fill="none" xmlns="http://www.w3.org/2000/svg">
<g clip-path="url(#clip0_285_1105)">
<path d="M4.11719 8.44099C4.11719 7.75845 4.38833 7.10386 4.87096 6.62123C5.35359 6.1386 6.00817 5.86746 6.69072 5.86746H22.1319C22.8144 5.86746 23.469 6.1386 23.9517 6.62123C24.4343 7.10386 24.7054 7.75845 24.7054 8.44099V9.72776H4.11719V8.44099ZM4.11719 12.3013V18.7351C4.11719 19.4177 4.38833 20.0722 4.87096 20.5549C5.35359 21.0375 6.00817 21.3086 6.69072 21.3086H22.1319C22.8144 21.3086 23.469 21.0375 23.9517 20.5549C24.4343 20.0722 24.7054 19.4177 24.7054 18.7351V12.3013H4.11719ZM7.97748 14.8748H9.26425C9.60552 14.8748 9.93281 15.0104 10.1741 15.2517C10.4154 15.493 10.551 15.8203 10.551 16.1616V17.4483C10.551 17.7896 10.4154 18.1169 10.1741 18.3582C9.93281 18.5995 9.60552 18.7351 9.26425 18.7351H7.97748C7.63621 18.7351 7.30892 18.5995 7.0676 18.3582C6.82629 18.1169 6.69072 17.7896 6.69072 17.4483V16.1616C6.69072 15.8203 6.82629 15.493 7.0676 15.2517C7.30892 15.0104 7.63621 14.8748 7.97748 14.8748Z" fill="#A1ADB2"/>
</g>
<defs>
<clipPath id="clip0_285_1105">
<rect width="20.5882" height="20.5882" fill="white" transform="translate(4.11719 3.29395)"/>
</clipPath>
</defs>
</svg>
